<?xml version="1.0" standalone="no"?>
<!DOCTYPE svg PUBLIC "-//W3C//DTD SVG 20010904//EN"
 "http://www.w3.org/TR/2001/REC-SVG-20010904/DTD/svg10.dtd">
<svg version="1.0" xmlns="http://www.w3.org/2000/svg"
 width="800.000000pt" height="800.000000pt" viewBox="0 0 800.000000 800.000000"
 preserveAspectRatio="xMidYMid meet">

<g transform="translate(0.000000,800.000000) scale(0.100000,-0.100000)"
fill="#000000" stroke="none">
<path d="M3895 6443 c-108 -6 -246 -26 -380 -54 -554 -115 -1039 -407 -1393
-841 -152 -186 -312 -467 -391 -687 -147 -405 -186 -832 -116 -1248 28 -164
44 -219 76 -249 16 -15 29 -31 29 -36 0 -13 -28 -9 -33 5 -3 7 -6 7 -6 1 -2
-25 82 -248 139 -371 33 -72 64 -147 67 -166 6 -41 1 -63 -129 -537 -144 -530
-190 -702 -186 -706 2 -1 89 19 193 46 161 42 891 231 1006 261 20 5 42 16 49
24 7 8 24 15 37 15 21 0 23 3 14 14 -7 8 -8 17 -3 20 5 3 40 -27 78 -65 74
-76 100 -91 259 -146 537 -187 1127 -181 1660 17 311 115 614 310 850 545 445
443 691 1007 719 1650 l4 110 -189 190 c-104 105 -189 195 -189 200 0 5 84
-73 186 -175 l186 -185 -5 125 c-10 215 -66 469 -154 700 l-36 96 -55 -1 c-48
0 -56 3 -83 33 -41 45 -40 99 1 140 17 17 30 33 30 37 0 3 -27 49 -60 101
-295 469 -744 829 -1261 1009 -56 19 -103 35 -105 35 -2 0 -4 -11 -4 -24 0
-39 -39 -76 -85 -82 -74 -9 -133 50 -122 123 5 26 2 32 -16 37 -42 10 -243 35
-332 41 l-90 6 29 -30 c16 -17 27 -33 25 -36 -3 -2 -21 11 -39 30 -36 37 -34
37 -175 28z m559 -146 c-5 -28 0 -38 45 -82 28 -27 51 -53 51 -57 0 -22 -32
-1 -95 62 -63 64 -68 71 -48 76 11 3 24 15 26 26 9 32 26 11 21 -25z m-127
-28 c18 -18 25 -20 37 -10 19 16 32 -4 16 -23 -16 -21 76 -108 107 -101 29 7
39 -11 14 -24 -28 -16 -60 0 -108 52 -36 38 -44 43 -54 31 -8 -10 -15 -12 -22
-5 -7 7 -6 15 1 24 9 11 8 18 -8 32 -19 17 -27 45 -13 45 4 0 17 -10 30 -21z
m35 -156 c36 -38 71 -78 77 -90 7 -13 20 -23 31 -23 28 0 227 -64 326 -105
413 -171 766 -488 993 -892 39 -69 56 -91 68 -86 13 5 14 1 8 -27 -7 -30 -3
-37 50 -90 38 -38 53 -60 45 -65 -6 -4 -22 3 -36 16 -27 25 -30 19 -10 -19 34
-66 89 -281 112 -438 22 -145 22 -423 0 -569 -72 -486 -329 -950 -696 -1257
-367 -308 -784 -469 -1255 -485 -178 -6 -327 5 -462 33 -71 14 -263 70 -305
89 -14 6 -18 2 -18 -16 0 -28 -25 -62 -57 -78 -45 -23 -104 -7 -140 39 -19 24
-16 97 5 118 18 18 16 20 -83 72 -96 49 -106 52 -156 47 -30 -3 -94 -17 -144
-31 -213 -61 -585 -153 -585 -145 0 21 102 401 131 489 37 111 47 215 29 291
-7 30 -41 108 -75 174 -75 143 -144 316 -175 440 -13 50 -25 91 -26 93 -1 2
-13 -2 -25 -9 -33 -17 -99 -12 -122 8 -29 26 -47 76 -39 106 16 57 72 95 125
85 l23 -4 0 215 c1 156 6 244 18 316 96 567 390 1041 846 1365 341 242 745
369 1178 370 162 0 163 0 172 24 13 35 50 66 78 66 19 0 22 3 13 13 -10 13 -6
27 8 27 4 0 36 -30 73 -67z m1709 -1093 l24 -20 -62 -61 c-35 -33 -63 -65 -63
-69 0 -4 7 -11 16 -14 49 -19 101 16 106 71 4 46 28 58 28 13 0 -68 -48 -115
-115 -111 -68 4 -116 73 -95 137 23 67 110 97 161 54z m-4252 -1410 c17 -7 31
-15 31 -18 0 -4 -28 -34 -61 -68 -64 -65 -68 -84 -18 -84 40 0 79 39 79 79 0
40 17 48 25 12 7 -31 -11 -77 -38 -100 -46 -37 -133 -17 -162 39 -28 53 -13
105 39 140 31 20 58 20 105 0z m426 -1018 c-5 -6 -425 413 -425 424 0 5 97
-88 215 -206 118 -118 212 -216 210 -218z m440 -440 c-5 -5 -65 53 -65 64 0 4
16 -7 35 -26 19 -18 33 -36 30 -38z m358 -78 c-1 -5 -5 -17 -8 -26 -5 -13 9
-34 50 -77 80 -84 51 -88 -35 -5 -64 61 -81 88 -55 84 5 -1 13 8 17 20 7 20
35 23 31 4z m-128 -54 c17 -18 20 -19 36 -4 21 19 37 1 18 -22 -18 -22 66
-107 99 -101 26 5 41 -11 21 -24 -28 -17 -49 -8 -99 42 -41 41 -53 49 -65 39
-21 -17 -37 -3 -23 20 10 16 8 23 -12 45 -17 19 -20 25 -8 25 8 0 23 -9 33
-20z"/>
<path d="M4236 6097 c-42 -42 -34 -54 41 -62 36 -4 72 -9 80 -12 22 -8 15 33
-9 61 -13 15 -37 29 -55 32 -25 5 -37 1 -57 -19z"/>
<path d="M4392 6028 c2 -6 10 -14 16 -16 7 -2 10 2 6 12 -7 18 -28 22 -22 4z"/>
<path d="M3115 5131 c-56 -14 -93 -40 -158 -112 -225 -246 -235 -593 -29 -929
146 -237 289 -418 473 -602 368 -365 789 -587 1190 -629 355 -36 639 185 639
497 0 68 -2 74 -28 93 -52 36 -523 261 -548 261 -36 0 -77 -38 -179 -164 -128
-160 -140 -167 -230 -136 -82 28 -255 122 -350 188 -191 136 -451 434 -495
568 -10 31 -9 39 15 77 14 23 49 69 76 102 54 63 99 146 99 181 0 12 -29 93
-64 180 -153 379 -164 400 -213 413 -56 14 -164 21 -198 12z"/>
<path d="M1871 3734 c-22 -28 -27 -60 -13 -82 6 -8 23 2 60 38 29 28 50 55 47
60 -4 6 -21 10 -40 10 -24 0 -39 -7 -54 -26z"/>
<path d="M1936 3671 c-27 -27 -45 -54 -42 -60 11 -17 61 -13 88 8 19 16 23 26
20 55 -2 20 -7 38 -11 41 -4 2 -29 -18 -55 -44z"/>
<path d="M3116 2148 c-18 -26 -20 -46 -6 -68 8 -12 16 -8 50 25 l40 39 -22 13
c-33 18 -45 16 -62 -9z"/>
<path d="M3182 2091 c-41 -42 -43 -46 -25 -58 37 -28 103 10 103 58 0 50 -29
50 -78 0z"/>
<path d="M5960 4991 c-29 -29 -38 -63 -22 -88 6 -9 24 4 62 42 30 30 52 56 49
58 -2 2 -17 7 -32 11 -23 5 -34 1 -57 -23z"/>
<path d="M1716 3579 c-19 -15 -26 -30 -26 -54 0 -19 3 -36 8 -38 4 -3 31 17
61 45 42 39 51 52 40 59 -23 15 -55 10 -83 -12z"/>
<path d="M4520 6357 c0 -20 4 -38 8 -41 5 -3 25 10 45 29 21 19 31 35 23 35
-7 0 -28 3 -45 6 -30 6 -31 5 -31 -29z"/>
<path d="M4591 6326 l-43 -43 29 -10 c34 -12 65 -2 87 29 17 25 21 58 7 58 -5
0 -15 2 -23 5 -7 3 -33 -14 -57 -39z"/>
<path d="M6111 5144 c-23 -30 -26 -46 -11 -74 9 -17 12 -16 43 13 31 30 32 34
20 60 -17 34 -26 34 -52 1z"/>
<path d="M6157 5067 c-31 -34 -25 -48 22 -49 42 -1 45 4 24 45 l-18 35 -28
-31z"/>
<path d="M2845 1870 c-3 -6 3 -10 15 -10 12 0 34 -7 50 -15 17 -9 30 -12 30
-7 0 19 -85 48 -95 32z"/>
</g>
</svg>
